# xmcd CD database file
#
# Track frame offsets:
#	150
#	16737
#	34475
#	50445
#	72585
#	86582
#	109022
#	122190
#	146195
#	163392
#
# Disc length: 2495 seconds
#
# Revision: 0
# Processed by: cddbd v1.4PL0 Copyright (c) Steve Scherf et al.
# Submitted via: CDex 1.51
#
DISCID=9309bd0a
DTITLE=Monica Pilar and Undecided Jazzband - Besame Mucho
DYEAR=2000
DGENRE=Jazz
TTITLE0=corcovado
TTITLE1=route 66
TTITLE2=mais que nada
TTITLE3=qarota de ipanema
TTITLE4=pennies from heaven
TTITLE5=this masquerade
TTITLE6=wave
TTITLE7=georgia on my mind
TTITLE8=chega de saudade
TTITLE9=besame mucho
EXTD=YEAR: 2000
EXTT0=
EXTT1=
EXTT2=
EXTT3=
EXTT4=
EXTT5=
EXTT6=
EXTT7=
EXTT8=
EXTT9=
PLAYORDER=
